<mxfile host="Electron" modified="2023-12-05T17:34:11.597Z" agent="Mozilla/5.0 (X11; Linux x86_64) AppleWebKit/537.36 (KHTML, like Gecko) draw.io/21.1.2 Chrome/106.0.5249.199 Electron/21.4.3 Safari/537.36" etag="_cOZpCqDQsm4Ma-PTnx8" version="21.1.2" type="device">
  <diagram name="Page-1" id="jt6pdz1mvKQ4YR085iyc">
    <mxGraphModel dx="1422" dy="1046" grid="1" gridSize="10" guides="1" tooltips="1" connect="1" arrows="1" fold="1" page="1" pageScale="1" pageWidth="827" pageHeight="1169" math="1" shadow="0">
      <root>
        <mxCell id="0" />
        <mxCell id="1" parent="0" />
        <mxCell id="BE8Wb5OFAH_yptXNtE9I-67" value="" style="rounded=0;whiteSpace=wrap;html=1;fillColor=none;strokeWidth=2;dashed=1;" vertex="1" parent="1">
          <mxGeometry x="10" y="610" width="470" height="360" as="geometry" />
        </mxCell>
        <mxCell id="BE8Wb5OFAH_yptXNtE9I-6" style="edgeStyle=orthogonalEdgeStyle;rounded=0;orthogonalLoop=1;jettySize=auto;html=1;exitX=1;exitY=0.25;exitDx=0;exitDy=0;entryX=0;entryY=0.25;entryDx=0;entryDy=0;strokeWidth=2;" edge="1" parent="1" source="1vVqgqgyp8pKWViCEyBv-1" target="1vVqgqgyp8pKWViCEyBv-2">
          <mxGeometry relative="1" as="geometry" />
        </mxCell>
        <mxCell id="BE8Wb5OFAH_yptXNtE9I-15" style="edgeStyle=orthogonalEdgeStyle;rounded=0;orthogonalLoop=1;jettySize=auto;html=1;exitX=1;exitY=0.75;exitDx=0;exitDy=0;entryX=0;entryY=0.25;entryDx=0;entryDy=0;strokeWidth=2;" edge="1" parent="1" source="1vVqgqgyp8pKWViCEyBv-1" target="1vVqgqgyp8pKWViCEyBv-3">
          <mxGeometry relative="1" as="geometry" />
        </mxCell>
        <mxCell id="BE8Wb5OFAH_yptXNtE9I-35" style="edgeStyle=orthogonalEdgeStyle;rounded=0;orthogonalLoop=1;jettySize=auto;html=1;exitX=1;exitY=0.75;exitDx=0;exitDy=0;entryX=0;entryY=0.5;entryDx=0;entryDy=0;" edge="1" parent="1" source="1vVqgqgyp8pKWViCEyBv-1" target="BE8Wb5OFAH_yptXNtE9I-30">
          <mxGeometry relative="1" as="geometry" />
        </mxCell>
        <mxCell id="1vVqgqgyp8pKWViCEyBv-1" value="Step 1" style="rounded=0;whiteSpace=wrap;html=1;" parent="1" vertex="1">
          <mxGeometry x="80" y="320" width="80" height="80" as="geometry" />
        </mxCell>
        <mxCell id="BE8Wb5OFAH_yptXNtE9I-17" style="edgeStyle=orthogonalEdgeStyle;rounded=0;orthogonalLoop=1;jettySize=auto;html=1;exitX=1;exitY=0.75;exitDx=0;exitDy=0;entryX=0;entryY=0.25;entryDx=0;entryDy=0;strokeWidth=2;" edge="1" parent="1" source="1vVqgqgyp8pKWViCEyBv-2" target="1vVqgqgyp8pKWViCEyBv-4">
          <mxGeometry relative="1" as="geometry" />
        </mxCell>
        <mxCell id="BE8Wb5OFAH_yptXNtE9I-23" style="edgeStyle=orthogonalEdgeStyle;rounded=0;orthogonalLoop=1;jettySize=auto;html=1;exitX=1;exitY=0.25;exitDx=0;exitDy=0;strokeWidth=2;" edge="1" parent="1" source="1vVqgqgyp8pKWViCEyBv-2">
          <mxGeometry relative="1" as="geometry">
            <mxPoint x="680" y="340" as="targetPoint" />
          </mxGeometry>
        </mxCell>
        <mxCell id="BE8Wb5OFAH_yptXNtE9I-36" style="edgeStyle=orthogonalEdgeStyle;rounded=0;orthogonalLoop=1;jettySize=auto;html=1;exitX=1;exitY=0.75;exitDx=0;exitDy=0;entryX=0;entryY=0.5;entryDx=0;entryDy=0;" edge="1" parent="1" source="1vVqgqgyp8pKWViCEyBv-2" target="BE8Wb5OFAH_yptXNtE9I-31">
          <mxGeometry relative="1" as="geometry" />
        </mxCell>
        <mxCell id="1vVqgqgyp8pKWViCEyBv-2" value="Step 2" style="rounded=0;whiteSpace=wrap;html=1;" parent="1" vertex="1">
          <mxGeometry x="400" y="320" width="80" height="80" as="geometry" />
        </mxCell>
        <mxCell id="BE8Wb5OFAH_yptXNtE9I-10" style="edgeStyle=orthogonalEdgeStyle;rounded=0;orthogonalLoop=1;jettySize=auto;html=1;exitX=1;exitY=0.75;exitDx=0;exitDy=0;entryX=0;entryY=0.75;entryDx=0;entryDy=0;strokeWidth=2;" edge="1" parent="1" source="1vVqgqgyp8pKWViCEyBv-3" target="1vVqgqgyp8pKWViCEyBv-4">
          <mxGeometry relative="1" as="geometry" />
        </mxCell>
        <mxCell id="BE8Wb5OFAH_yptXNtE9I-16" style="edgeStyle=orthogonalEdgeStyle;rounded=0;orthogonalLoop=1;jettySize=auto;html=1;exitX=1;exitY=0.25;exitDx=0;exitDy=0;entryX=0;entryY=0.75;entryDx=0;entryDy=0;strokeWidth=2;" edge="1" parent="1" source="1vVqgqgyp8pKWViCEyBv-3" target="1vVqgqgyp8pKWViCEyBv-2">
          <mxGeometry relative="1" as="geometry" />
        </mxCell>
        <mxCell id="1vVqgqgyp8pKWViCEyBv-3" value="Wrap 1" style="rounded=0;whiteSpace=wrap;html=1;" parent="1" vertex="1">
          <mxGeometry x="240" y="480" width="80" height="80" as="geometry" />
        </mxCell>
        <mxCell id="BE8Wb5OFAH_yptXNtE9I-21" style="edgeStyle=orthogonalEdgeStyle;rounded=0;orthogonalLoop=1;jettySize=auto;html=1;exitX=1;exitY=0.25;exitDx=0;exitDy=0;strokeWidth=2;" edge="1" parent="1">
          <mxGeometry relative="1" as="geometry">
            <mxPoint x="680" y="500" as="targetPoint" />
            <mxPoint x="640" y="500" as="sourcePoint" />
          </mxGeometry>
        </mxCell>
        <mxCell id="BE8Wb5OFAH_yptXNtE9I-22" style="edgeStyle=orthogonalEdgeStyle;rounded=0;orthogonalLoop=1;jettySize=auto;html=1;exitX=1;exitY=0.75;exitDx=0;exitDy=0;strokeWidth=2;" edge="1" parent="1" source="1vVqgqgyp8pKWViCEyBv-4">
          <mxGeometry relative="1" as="geometry">
            <mxPoint x="680" y="540" as="targetPoint" />
          </mxGeometry>
        </mxCell>
        <mxCell id="1vVqgqgyp8pKWViCEyBv-4" value="Wrap 2" style="rounded=0;whiteSpace=wrap;html=1;" parent="1" vertex="1">
          <mxGeometry x="560" y="480" width="80" height="80" as="geometry" />
        </mxCell>
        <mxCell id="1vVqgqgyp8pKWViCEyBv-5" value="An output of each kimchi proof is:&lt;br&gt;- Commitments \(\{C_i\} = \mathsf{Com}(P_i(X))\)&lt;br&gt;&amp;nbsp; - To certain polynomials \(\{P_i(X)\}\) created inside the proof&lt;br&gt;- Evaluation point \(x\) (Fiat-Shamir hash)&lt;br&gt;- Polynomial evaluations \(\{s_i = P_i(x)\}\)" style="text;html=1;align=left;verticalAlign=middle;resizable=0;points=[];autosize=1;strokeColor=none;fillColor=none;" parent="1" vertex="1">
          <mxGeometry x="40" y="70" width="350" height="90" as="geometry" />
        </mxCell>
        <mxCell id="1vVqgqgyp8pKWViCEyBv-6" value="The structure of an IPA commitment is \((U,\vec v)\), where \(U\) is a single group element that needs to be verified linearly, and \(\vec v = (L,R,c,C&#39;,w&#39;)\) is a tuple of elements that are not propagated, but they altogether can be verified in a logarithmic time.&lt;br&gt;&lt;br&gt;To verify that \((U,\vec v)\) proves \(\mathsf{Open}(C,x,s)\) that is \(C(x) = s\), one need to run:&lt;br&gt;1. \(\mathsf{PC.SuccinctV}(\vec v,C,x,s) = (h(X),U)\) where \(U\) is as given and \(h(X)\) is a linear-sized polynomial that can be evaluated in log-time. The check is log time.&lt;br&gt;2. \(U = \mathsf{Pedersen.Commit}(h(X))\). The check is linear time." style="text;html=1;strokeColor=none;fillColor=none;align=left;verticalAlign=middle;whiteSpace=wrap;rounded=0;" parent="1" vertex="1">
          <mxGeometry x="414" y="60" width="380" height="180" as="geometry" />
        </mxCell>
        <mxCell id="BE8Wb5OFAH_yptXNtE9I-24" value="" style="edgeStyle=orthogonalEdgeStyle;rounded=0;orthogonalLoop=1;jettySize=auto;html=1;" edge="1" parent="1" source="BE8Wb5OFAH_yptXNtE9I-19" target="1vVqgqgyp8pKWViCEyBv-1">
          <mxGeometry relative="1" as="geometry" />
        </mxCell>
        <mxCell id="BE8Wb5OFAH_yptXNtE9I-19" value="$$(x_1,w_1)$$" style="text;html=1;align=center;verticalAlign=middle;resizable=0;points=[];autosize=1;strokeColor=none;fillColor=none;" vertex="1" parent="1">
          <mxGeometry x="70" y="270" width="100" height="30" as="geometry" />
        </mxCell>
        <mxCell id="BE8Wb5OFAH_yptXNtE9I-25" value="" style="edgeStyle=orthogonalEdgeStyle;rounded=0;orthogonalLoop=1;jettySize=auto;html=1;" edge="1" parent="1" source="BE8Wb5OFAH_yptXNtE9I-20" target="1vVqgqgyp8pKWViCEyBv-2">
          <mxGeometry relative="1" as="geometry" />
        </mxCell>
        <mxCell id="BE8Wb5OFAH_yptXNtE9I-20" value="$$(x_2,w_2)$$" style="text;html=1;align=center;verticalAlign=middle;resizable=0;points=[];autosize=1;strokeColor=none;fillColor=none;" vertex="1" parent="1">
          <mxGeometry x="390" y="270" width="100" height="30" as="geometry" />
        </mxCell>
        <mxCell id="BE8Wb5OFAH_yptXNtE9I-32" style="edgeStyle=orthogonalEdgeStyle;orthogonalLoop=1;jettySize=auto;html=1;exitX=1;exitY=1;exitDx=0;exitDy=0;entryX=0;entryY=1;entryDx=0;entryDy=0;curved=1;" edge="1" parent="1" source="BE8Wb5OFAH_yptXNtE9I-30" target="BE8Wb5OFAH_yptXNtE9I-31">
          <mxGeometry relative="1" as="geometry">
            <Array as="points">
              <mxPoint x="300" y="410" />
              <mxPoint x="580" y="410" />
            </Array>
          </mxGeometry>
        </mxCell>
        <mxCell id="BE8Wb5OFAH_yptXNtE9I-50" style="edgeStyle=orthogonalEdgeStyle;rounded=0;orthogonalLoop=1;jettySize=auto;html=1;exitX=1;exitY=0.5;exitDx=0;exitDy=0;" edge="1" parent="1" source="BE8Wb5OFAH_yptXNtE9I-30">
          <mxGeometry relative="1" as="geometry">
            <mxPoint x="400" y="380" as="targetPoint" />
          </mxGeometry>
        </mxCell>
        <mxCell id="BE8Wb5OFAH_yptXNtE9I-30" value="acc1" style="rounded=0;whiteSpace=wrap;html=1;fillColor=#dae8fc;strokeColor=#6c8ebf;" vertex="1" parent="1">
          <mxGeometry x="260" y="370" width="40" height="20" as="geometry" />
        </mxCell>
        <mxCell id="BE8Wb5OFAH_yptXNtE9I-39" style="edgeStyle=orthogonalEdgeStyle;rounded=0;orthogonalLoop=1;jettySize=auto;html=1;exitX=1;exitY=0.5;exitDx=0;exitDy=0;" edge="1" parent="1" source="BE8Wb5OFAH_yptXNtE9I-31">
          <mxGeometry relative="1" as="geometry">
            <mxPoint x="680" y="380" as="targetPoint" />
          </mxGeometry>
        </mxCell>
        <mxCell id="BE8Wb5OFAH_yptXNtE9I-31" value="acc2" style="rounded=0;whiteSpace=wrap;html=1;fillColor=#dae8fc;strokeColor=#6c8ebf;" vertex="1" parent="1">
          <mxGeometry x="580" y="370" width="40" height="20" as="geometry" />
        </mxCell>
        <mxCell id="BE8Wb5OFAH_yptXNtE9I-34" style="edgeStyle=orthogonalEdgeStyle;orthogonalLoop=1;jettySize=auto;html=1;exitX=1;exitY=1;exitDx=0;exitDy=0;entryX=0;entryY=1;entryDx=0;entryDy=0;curved=1;" edge="1" parent="1" source="BE8Wb5OFAH_yptXNtE9I-33" target="BE8Wb5OFAH_yptXNtE9I-30">
          <mxGeometry relative="1" as="geometry" />
        </mxCell>
        <mxCell id="BE8Wb5OFAH_yptXNtE9I-33" value="acc0" style="rounded=0;whiteSpace=wrap;html=1;fillColor=#dae8fc;strokeColor=#6c8ebf;" vertex="1" parent="1">
          <mxGeometry x="10" y="370" width="40" height="20" as="geometry" />
        </mxCell>
        <mxCell id="BE8Wb5OFAH_yptXNtE9I-37" value="C1" style="text;html=1;align=center;verticalAlign=middle;resizable=0;points=[];autosize=1;strokeColor=none;fillColor=none;" vertex="1" parent="1">
          <mxGeometry x="210" y="355" width="40" height="30" as="geometry" />
        </mxCell>
        <mxCell id="BE8Wb5OFAH_yptXNtE9I-38" value="C2" style="text;html=1;align=center;verticalAlign=middle;resizable=0;points=[];autosize=1;strokeColor=none;fillColor=none;" vertex="1" parent="1">
          <mxGeometry x="530" y="355" width="40" height="30" as="geometry" />
        </mxCell>
        <mxCell id="BE8Wb5OFAH_yptXNtE9I-40" style="edgeStyle=orthogonalEdgeStyle;rounded=0;orthogonalLoop=1;jettySize=auto;html=1;exitX=1;exitY=0.75;exitDx=0;exitDy=0;entryX=0;entryY=0.5;entryDx=0;entryDy=0;" edge="1" parent="1" target="BE8Wb5OFAH_yptXNtE9I-43">
          <mxGeometry relative="1" as="geometry">
            <mxPoint x="320" y="500" as="sourcePoint" />
          </mxGeometry>
        </mxCell>
        <mxCell id="BE8Wb5OFAH_yptXNtE9I-41" style="edgeStyle=orthogonalEdgeStyle;rounded=0;orthogonalLoop=1;jettySize=auto;html=1;exitX=1;exitY=0.75;exitDx=0;exitDy=0;entryX=0;entryY=0.5;entryDx=0;entryDy=0;strokeWidth=1;" edge="1" parent="1" target="BE8Wb5OFAH_yptXNtE9I-45">
          <mxGeometry relative="1" as="geometry">
            <mxPoint x="640" y="500" as="sourcePoint" />
            <Array as="points">
              <mxPoint x="710" y="500" />
              <mxPoint x="710" y="500" />
            </Array>
          </mxGeometry>
        </mxCell>
        <mxCell id="BE8Wb5OFAH_yptXNtE9I-48" style="edgeStyle=orthogonalEdgeStyle;orthogonalLoop=1;jettySize=auto;html=1;exitX=1;exitY=0;exitDx=0;exitDy=0;entryX=0;entryY=0;entryDx=0;entryDy=0;curved=1;" edge="1" parent="1" source="BE8Wb5OFAH_yptXNtE9I-43" target="BE8Wb5OFAH_yptXNtE9I-45">
          <mxGeometry relative="1" as="geometry" />
        </mxCell>
        <mxCell id="BE8Wb5OFAH_yptXNtE9I-51" style="edgeStyle=orthogonalEdgeStyle;rounded=0;orthogonalLoop=1;jettySize=auto;html=1;exitX=1;exitY=0.5;exitDx=0;exitDy=0;" edge="1" parent="1" source="BE8Wb5OFAH_yptXNtE9I-43">
          <mxGeometry relative="1" as="geometry">
            <mxPoint x="560" y="500" as="targetPoint" />
          </mxGeometry>
        </mxCell>
        <mxCell id="BE8Wb5OFAH_yptXNtE9I-43" value="acc1&#39;" style="rounded=0;whiteSpace=wrap;html=1;fillColor=#d5e8d4;strokeColor=#82b366;" vertex="1" parent="1">
          <mxGeometry x="420" y="490" width="40" height="20" as="geometry" />
        </mxCell>
        <mxCell id="BE8Wb5OFAH_yptXNtE9I-45" value="acc2&#39;" style="rounded=0;whiteSpace=wrap;html=1;fillColor=#d5e8d4;strokeColor=#82b366;" vertex="1" parent="1">
          <mxGeometry x="690" y="490" width="40" height="20" as="geometry" />
        </mxCell>
        <mxCell id="BE8Wb5OFAH_yptXNtE9I-47" style="edgeStyle=orthogonalEdgeStyle;orthogonalLoop=1;jettySize=auto;html=1;exitX=1;exitY=0;exitDx=0;exitDy=0;entryX=0;entryY=0;entryDx=0;entryDy=0;curved=1;" edge="1" parent="1" source="BE8Wb5OFAH_yptXNtE9I-46" target="BE8Wb5OFAH_yptXNtE9I-43">
          <mxGeometry relative="1" as="geometry" />
        </mxCell>
        <mxCell id="BE8Wb5OFAH_yptXNtE9I-46" value="acc0" style="rounded=0;whiteSpace=wrap;html=1;fillColor=#d5e8d4;strokeColor=#82b366;" vertex="1" parent="1">
          <mxGeometry x="100" y="490" width="40" height="20" as="geometry" />
        </mxCell>
        <mxCell id="BE8Wb5OFAH_yptXNtE9I-75" style="edgeStyle=orthogonalEdgeStyle;rounded=0;orthogonalLoop=1;jettySize=auto;html=1;exitX=0.5;exitY=1;exitDx=0;exitDy=0;" edge="1" parent="1" source="BE8Wb5OFAH_yptXNtE9I-67" target="BE8Wb5OFAH_yptXNtE9I-67">
          <mxGeometry relative="1" as="geometry" />
        </mxCell>
        <mxCell id="BE8Wb5OFAH_yptXNtE9I-142" value="" style="edgeStyle=orthogonalEdgeStyle;rounded=0;orthogonalLoop=1;jettySize=auto;html=1;strokeWidth=2;" edge="1" parent="1" target="BE8Wb5OFAH_yptXNtE9I-146">
          <mxGeometry relative="1" as="geometry">
            <mxPoint x="170" y="715" as="sourcePoint" />
          </mxGeometry>
        </mxCell>
        <mxCell id="BE8Wb5OFAH_yptXNtE9I-144" style="edgeStyle=orthogonalEdgeStyle;rounded=0;orthogonalLoop=1;jettySize=auto;html=1;exitX=1;exitY=0.75;exitDx=0;exitDy=0;entryX=0;entryY=0.25;entryDx=0;entryDy=0;strokeWidth=2;" edge="1" parent="1" source="BE8Wb5OFAH_yptXNtE9I-146" target="BE8Wb5OFAH_yptXNtE9I-147">
          <mxGeometry relative="1" as="geometry" />
        </mxCell>
        <mxCell id="BE8Wb5OFAH_yptXNtE9I-145" style="edgeStyle=orthogonalEdgeStyle;rounded=0;orthogonalLoop=1;jettySize=auto;html=1;exitX=1;exitY=0.75;exitDx=0;exitDy=0;entryX=0;entryY=0.5;entryDx=0;entryDy=0;" edge="1" parent="1" source="BE8Wb5OFAH_yptXNtE9I-146" target="BE8Wb5OFAH_yptXNtE9I-150">
          <mxGeometry relative="1" as="geometry" />
        </mxCell>
        <mxCell id="BE8Wb5OFAH_yptXNtE9I-146" value="&lt;b&gt;Vinegar&lt;/b&gt;&lt;br&gt;Step" style="rounded=0;whiteSpace=wrap;html=1;" vertex="1" parent="1">
          <mxGeometry x="220" y="675" width="80" height="80" as="geometry" />
        </mxCell>
        <mxCell id="BE8Wb5OFAH_yptXNtE9I-147" value="&lt;b&gt;Vinegar&lt;/b&gt;&lt;br&gt;Wrap" style="rounded=0;whiteSpace=wrap;html=1;" vertex="1" parent="1">
          <mxGeometry x="380" y="833" width="80" height="80" as="geometry" />
        </mxCell>
        <mxCell id="BE8Wb5OFAH_yptXNtE9I-148" value="" style="edgeStyle=orthogonalEdgeStyle;rounded=0;orthogonalLoop=1;jettySize=auto;html=1;" edge="1" parent="1" source="BE8Wb5OFAH_yptXNtE9I-149" target="BE8Wb5OFAH_yptXNtE9I-146">
          <mxGeometry relative="1" as="geometry" />
        </mxCell>
        <mxCell id="BE8Wb5OFAH_yptXNtE9I-149" value="$$(x_1,w_1)$$" style="text;html=1;align=center;verticalAlign=middle;resizable=0;points=[];autosize=1;strokeColor=none;fillColor=none;" vertex="1" parent="1">
          <mxGeometry x="210" y="625" width="100" height="30" as="geometry" />
        </mxCell>
        <mxCell id="BE8Wb5OFAH_yptXNtE9I-150" value="acc1" style="rounded=0;whiteSpace=wrap;html=1;fillColor=#dae8fc;strokeColor=#6c8ebf;" vertex="1" parent="1">
          <mxGeometry x="400" y="725" width="40" height="20" as="geometry" />
        </mxCell>
        <mxCell id="BE8Wb5OFAH_yptXNtE9I-151" value="C1" style="text;html=1;align=center;verticalAlign=middle;resizable=0;points=[];autosize=1;strokeColor=none;fillColor=none;" vertex="1" parent="1">
          <mxGeometry x="350" y="710" width="40" height="30" as="geometry" />
        </mxCell>
        <mxCell id="BE8Wb5OFAH_yptXNtE9I-152" value="🪄" style="text;html=1;strokeColor=none;fillColor=none;align=center;verticalAlign=middle;whiteSpace=wrap;rounded=0;fontSize=30;" vertex="1" parent="1">
          <mxGeometry x="179" y="678" width="40" height="30" as="geometry" />
        </mxCell>
        <mxCell id="BE8Wb5OFAH_yptXNtE9I-153" value="🪄" style="text;html=1;strokeColor=none;fillColor=none;align=center;verticalAlign=middle;whiteSpace=wrap;rounded=0;fontSize=30;" vertex="1" parent="1">
          <mxGeometry x="190" y="815" width="40" height="30" as="geometry" />
        </mxCell>
        <mxCell id="BE8Wb5OFAH_yptXNtE9I-154" style="edgeStyle=orthogonalEdgeStyle;rounded=0;orthogonalLoop=1;jettySize=auto;html=1;exitX=0.5;exitY=1;exitDx=0;exitDy=0;" edge="1" parent="1">
          <mxGeometry relative="1" as="geometry">
            <mxPoint x="255" y="960" as="sourcePoint" />
            <mxPoint x="255" y="960" as="targetPoint" />
          </mxGeometry>
        </mxCell>
        <mxCell id="BE8Wb5OFAH_yptXNtE9I-155" value="✨" style="text;whiteSpace=wrap;html=1;fontSize=21;" vertex="1" parent="1">
          <mxGeometry x="270" y="720" width="30" height="30" as="geometry" />
        </mxCell>
        <mxCell id="BE8Wb5OFAH_yptXNtE9I-156" value="✨" style="text;whiteSpace=wrap;html=1;fontSize=21;" vertex="1" parent="1">
          <mxGeometry x="430" y="810" width="30" height="30" as="geometry" />
        </mxCell>
        <mxCell id="BE8Wb5OFAH_yptXNtE9I-184" style="edgeStyle=orthogonalEdgeStyle;orthogonalLoop=1;jettySize=auto;html=1;exitX=0.55;exitY=0.95;exitDx=0;exitDy=0;exitPerimeter=0;entryX=0;entryY=0.75;entryDx=0;entryDy=0;curved=1;strokeWidth=2;" edge="1" parent="1" source="BE8Wb5OFAH_yptXNtE9I-157" target="BE8Wb5OFAH_yptXNtE9I-147">
          <mxGeometry relative="1" as="geometry">
            <Array as="points">
              <mxPoint x="113" y="893" />
            </Array>
          </mxGeometry>
        </mxCell>
        <mxCell id="BE8Wb5OFAH_yptXNtE9I-157" value="External Proof" style="ellipse;shape=cloud;whiteSpace=wrap;html=1;fillColor=#C18BF8;strokeColor=#b85450;" vertex="1" parent="1">
          <mxGeometry x="20" y="660" width="170" height="100" as="geometry" />
        </mxCell>
        <mxCell id="BE8Wb5OFAH_yptXNtE9I-158" style="edgeStyle=orthogonalEdgeStyle;rounded=0;orthogonalLoop=1;jettySize=auto;html=1;exitX=1;exitY=0.75;exitDx=0;exitDy=0;entryX=0;entryY=0.25;entryDx=0;entryDy=0;strokeWidth=2;" edge="1" parent="1" source="BE8Wb5OFAH_yptXNtE9I-161" target="BE8Wb5OFAH_yptXNtE9I-167">
          <mxGeometry relative="1" as="geometry" />
        </mxCell>
        <mxCell id="BE8Wb5OFAH_yptXNtE9I-159" style="edgeStyle=orthogonalEdgeStyle;rounded=0;orthogonalLoop=1;jettySize=auto;html=1;exitX=1;exitY=0.25;exitDx=0;exitDy=0;strokeWidth=2;" edge="1" parent="1" source="BE8Wb5OFAH_yptXNtE9I-161">
          <mxGeometry relative="1" as="geometry">
            <mxPoint x="820" y="695" as="targetPoint" />
          </mxGeometry>
        </mxCell>
        <mxCell id="BE8Wb5OFAH_yptXNtE9I-160" style="edgeStyle=orthogonalEdgeStyle;rounded=0;orthogonalLoop=1;jettySize=auto;html=1;exitX=1;exitY=0.75;exitDx=0;exitDy=0;entryX=0;entryY=0.5;entryDx=0;entryDy=0;" edge="1" parent="1" source="BE8Wb5OFAH_yptXNtE9I-161" target="BE8Wb5OFAH_yptXNtE9I-174">
          <mxGeometry relative="1" as="geometry" />
        </mxCell>
        <mxCell id="BE8Wb5OFAH_yptXNtE9I-161" value="Step 2" style="rounded=0;whiteSpace=wrap;html=1;" vertex="1" parent="1">
          <mxGeometry x="540" y="675" width="80" height="80" as="geometry" />
        </mxCell>
        <mxCell id="BE8Wb5OFAH_yptXNtE9I-162" style="edgeStyle=orthogonalEdgeStyle;rounded=0;orthogonalLoop=1;jettySize=auto;html=1;exitX=1;exitY=0.75;exitDx=0;exitDy=0;entryX=0;entryY=0.75;entryDx=0;entryDy=0;strokeWidth=2;" edge="1" parent="1" target="BE8Wb5OFAH_yptXNtE9I-167">
          <mxGeometry relative="1" as="geometry">
            <mxPoint x="460" y="895" as="sourcePoint" />
          </mxGeometry>
        </mxCell>
        <mxCell id="BE8Wb5OFAH_yptXNtE9I-163" style="edgeStyle=orthogonalEdgeStyle;rounded=0;orthogonalLoop=1;jettySize=auto;html=1;exitX=1;exitY=0.25;exitDx=0;exitDy=0;entryX=0;entryY=0.75;entryDx=0;entryDy=0;strokeWidth=2;" edge="1" parent="1" target="BE8Wb5OFAH_yptXNtE9I-161">
          <mxGeometry relative="1" as="geometry">
            <mxPoint x="460" y="855" as="sourcePoint" />
          </mxGeometry>
        </mxCell>
        <mxCell id="BE8Wb5OFAH_yptXNtE9I-165" style="edgeStyle=orthogonalEdgeStyle;rounded=0;orthogonalLoop=1;jettySize=auto;html=1;exitX=1;exitY=0.25;exitDx=0;exitDy=0;strokeWidth=2;" edge="1" parent="1">
          <mxGeometry relative="1" as="geometry">
            <mxPoint x="820" y="855" as="targetPoint" />
            <mxPoint x="780" y="855" as="sourcePoint" />
          </mxGeometry>
        </mxCell>
        <mxCell id="BE8Wb5OFAH_yptXNtE9I-166" style="edgeStyle=orthogonalEdgeStyle;rounded=0;orthogonalLoop=1;jettySize=auto;html=1;exitX=1;exitY=0.75;exitDx=0;exitDy=0;strokeWidth=2;" edge="1" parent="1" source="BE8Wb5OFAH_yptXNtE9I-167">
          <mxGeometry relative="1" as="geometry">
            <mxPoint x="820" y="895" as="targetPoint" />
          </mxGeometry>
        </mxCell>
        <mxCell id="BE8Wb5OFAH_yptXNtE9I-167" value="Wrap 2" style="rounded=0;whiteSpace=wrap;html=1;" vertex="1" parent="1">
          <mxGeometry x="700" y="835" width="80" height="80" as="geometry" />
        </mxCell>
        <mxCell id="BE8Wb5OFAH_yptXNtE9I-168" value="" style="edgeStyle=orthogonalEdgeStyle;rounded=0;orthogonalLoop=1;jettySize=auto;html=1;" edge="1" parent="1" source="BE8Wb5OFAH_yptXNtE9I-169" target="BE8Wb5OFAH_yptXNtE9I-161">
          <mxGeometry relative="1" as="geometry" />
        </mxCell>
        <mxCell id="BE8Wb5OFAH_yptXNtE9I-169" value="$$(x_2,w_2)$$" style="text;html=1;align=center;verticalAlign=middle;resizable=0;points=[];autosize=1;strokeColor=none;fillColor=none;" vertex="1" parent="1">
          <mxGeometry x="530" y="625" width="100" height="30" as="geometry" />
        </mxCell>
        <mxCell id="BE8Wb5OFAH_yptXNtE9I-170" style="edgeStyle=orthogonalEdgeStyle;orthogonalLoop=1;jettySize=auto;html=1;exitX=1;exitY=1;exitDx=0;exitDy=0;entryX=0;entryY=1;entryDx=0;entryDy=0;curved=1;" edge="1" parent="1" target="BE8Wb5OFAH_yptXNtE9I-174">
          <mxGeometry relative="1" as="geometry">
            <Array as="points">
              <mxPoint x="440" y="765" />
              <mxPoint x="720" y="765" />
            </Array>
            <mxPoint x="440" y="745" as="sourcePoint" />
          </mxGeometry>
        </mxCell>
        <mxCell id="BE8Wb5OFAH_yptXNtE9I-171" style="edgeStyle=orthogonalEdgeStyle;rounded=0;orthogonalLoop=1;jettySize=auto;html=1;exitX=1;exitY=0.5;exitDx=0;exitDy=0;" edge="1" parent="1">
          <mxGeometry relative="1" as="geometry">
            <mxPoint x="540" y="735" as="targetPoint" />
            <mxPoint x="440" y="735" as="sourcePoint" />
          </mxGeometry>
        </mxCell>
        <mxCell id="BE8Wb5OFAH_yptXNtE9I-173" style="edgeStyle=orthogonalEdgeStyle;rounded=0;orthogonalLoop=1;jettySize=auto;html=1;exitX=1;exitY=0.5;exitDx=0;exitDy=0;" edge="1" parent="1" source="BE8Wb5OFAH_yptXNtE9I-174">
          <mxGeometry relative="1" as="geometry">
            <mxPoint x="820" y="735" as="targetPoint" />
          </mxGeometry>
        </mxCell>
        <mxCell id="BE8Wb5OFAH_yptXNtE9I-174" value="acc2" style="rounded=0;whiteSpace=wrap;html=1;fillColor=#dae8fc;strokeColor=#6c8ebf;" vertex="1" parent="1">
          <mxGeometry x="720" y="725" width="40" height="20" as="geometry" />
        </mxCell>
        <mxCell id="BE8Wb5OFAH_yptXNtE9I-176" value="C2" style="text;html=1;align=center;verticalAlign=middle;resizable=0;points=[];autosize=1;strokeColor=none;fillColor=none;" vertex="1" parent="1">
          <mxGeometry x="670" y="710" width="40" height="30" as="geometry" />
        </mxCell>
        <mxCell id="BE8Wb5OFAH_yptXNtE9I-177" style="edgeStyle=orthogonalEdgeStyle;rounded=0;orthogonalLoop=1;jettySize=auto;html=1;exitX=1;exitY=0.75;exitDx=0;exitDy=0;entryX=0;entryY=0.5;entryDx=0;entryDy=0;" edge="1" parent="1" target="BE8Wb5OFAH_yptXNtE9I-181">
          <mxGeometry relative="1" as="geometry">
            <mxPoint x="460" y="855" as="sourcePoint" />
          </mxGeometry>
        </mxCell>
        <mxCell id="BE8Wb5OFAH_yptXNtE9I-178" style="edgeStyle=orthogonalEdgeStyle;rounded=0;orthogonalLoop=1;jettySize=auto;html=1;exitX=1;exitY=0.75;exitDx=0;exitDy=0;entryX=0;entryY=0.5;entryDx=0;entryDy=0;strokeWidth=1;" edge="1" parent="1" target="BE8Wb5OFAH_yptXNtE9I-182">
          <mxGeometry relative="1" as="geometry">
            <mxPoint x="780" y="855" as="sourcePoint" />
            <Array as="points">
              <mxPoint x="850" y="855" />
              <mxPoint x="850" y="855" />
            </Array>
          </mxGeometry>
        </mxCell>
        <mxCell id="BE8Wb5OFAH_yptXNtE9I-179" style="edgeStyle=orthogonalEdgeStyle;orthogonalLoop=1;jettySize=auto;html=1;exitX=1;exitY=0;exitDx=0;exitDy=0;entryX=0;entryY=0;entryDx=0;entryDy=0;curved=1;" edge="1" parent="1" source="BE8Wb5OFAH_yptXNtE9I-181" target="BE8Wb5OFAH_yptXNtE9I-182">
          <mxGeometry relative="1" as="geometry" />
        </mxCell>
        <mxCell id="BE8Wb5OFAH_yptXNtE9I-180" style="edgeStyle=orthogonalEdgeStyle;rounded=0;orthogonalLoop=1;jettySize=auto;html=1;exitX=1;exitY=0.5;exitDx=0;exitDy=0;" edge="1" parent="1" source="BE8Wb5OFAH_yptXNtE9I-181">
          <mxGeometry relative="1" as="geometry">
            <mxPoint x="700" y="855" as="targetPoint" />
          </mxGeometry>
        </mxCell>
        <mxCell id="BE8Wb5OFAH_yptXNtE9I-181" value="acc1&#39;" style="rounded=0;whiteSpace=wrap;html=1;fillColor=#d5e8d4;strokeColor=#82b366;" vertex="1" parent="1">
          <mxGeometry x="560" y="845" width="40" height="20" as="geometry" />
        </mxCell>
        <mxCell id="BE8Wb5OFAH_yptXNtE9I-182" value="acc2&#39;" style="rounded=0;whiteSpace=wrap;html=1;fillColor=#d5e8d4;strokeColor=#82b366;" vertex="1" parent="1">
          <mxGeometry x="880" y="845" width="40" height="20" as="geometry" />
        </mxCell>
      </root>
    </mxGraphModel>
  </diagram>
</mxfile>
